<?xml version="1.0" encoding="utf-8"?>
<svg version="1.0" width="2433.000000pt" height="3198.000000pt" viewBox="0 0 2433.000000 3198.000000" preserveAspectRatio="xMidYMid meet" xmlns="http://www.w3.org/2000/svg">
  <g fill="#03396c" stroke="none">
    <path d="M 1179 100.6 C 1090.1 104.7 1021.9 114.3 944.7 133.6 C 560.1 229.8 253.5 526 143.5 907.5 C 112.8 1013.8 98.5 1122.3 100.3 1234 C 101.2 1287.7 104.5 1330 111.6 1378.5 C 152.4 1658.3 297.9 1911.5 520 2089.5 C 668.2 2208.3 845.8 2287.5 1033.1 2318.5 C 1095.3 2328.8 1151.2 2333.3 1217 2333.3 C 1269.7 2333.3 1310.7 2330.7 1360 2324.4 C 1524 2303.4 1682 2245.7 1821.3 2155.8 C 1889.2 2112 1947 2065.1 2006.1 2006.1 C 2062.3 1949.9 2103.1 1900.1 2146.9 1834.5 C 2251 1678.4 2313.5 1499.6 2329.4 1312 C 2332.5 1276.1 2333.3 1249.6 2332.7 1201.7 C 2332.2 1154.1 2331.1 1134.7 2327 1096.5 C 2301.3 859.5 2201.9 639.7 2040.7 463.4 C 2020.2 440.9 1976.6 398.1 1955.5 379.6 C 1857.6 293.8 1750.6 227.7 1632.5 180.2 C 1521.6 135.6 1406.9 109.9 1283.5 102 C 1267.3 100.9 1192.9 100 1179 100.6 Z M 1287.7 275.4 C 1312.5 277.4 1330.2 279.4 1352.5 282.6 C 1597.6 317.7 1821.4 450.2 1970.5 648.5 C 2037 737 2086.3 833.2 2118.5 937 C 2172.9 1112.6 2174.7 1302.9 2123.6 1479.7 C 2096.8 1572.4 2055.7 1660.6 2001.6 1741.5 C 1857.2 1957.2 1630.4 2104.3 1375.8 2147.4 C 1137.1 2187.9 893.9 2136.3 693.5 2002.7 C 497.6 1872.1 357.5 1673.5 300.6 1445.5 C 286.4 1388.6 277.7 1330.3 274 1267.5 C 272.7 1245.4 272.7 1189.2 274 1166.4 C 286.2 951.5 366.2 755.3 507.9 593.1 C 524.9 573.7 568.8 529.4 587.5 512.8 C 654.2 453.8 725.6 405.9 803.5 367.9 C 916.5 312.7 1037.4 281.5 1167 274 C 1189.3 272.7 1265.4 273.6 1287.7 275.4 Z"/>
    <path d="M 1166.5 445.1 C 1006.8 456.8 866 510.5 741.6 606.9 L 726.7 618.5 L 939.1 618.8 C 1105.4 619.1 1327.5 619.1 1495 618.8 L 1706.5 618.5 L 1693 607.9 C 1589.5 526.5 1465 472.5 1335 452.6 C 1318.9 450.1 1301.9 448.1 1279.5 445.9 C 1265.3 444.5 1182.1 443.9 1166.5 445.1 Z"/>
    <path d="M 605.4 743.5 C 477.9 908.3 422.6 1114.6 450.6 1321.7 C 468.6 1455.9 522.4 1583.4 606 1690.8 L 615.5 1703 L 615.8 1460 C 615.9 1326.4 615.9 1107.5 615.8 973.7 L 615.5 730.5 L 605.4 743.5 Z"/>
    <path d="M 1819 1217.2 L 1819 1701.5 L 1821.1 1699 C 1822.2 1697.6 1828.4 1689.5 1834.8 1681 C 1915.4 1574.7 1967.1 1447.2 1984 1313.5 C 1992.4 1246.4 1991.7 1172 1982 1105.4 C 1965.3 990.6 1923.7 882.9 1858.6 786 C 1847.8 769.8 1821.9 734.7 1820 733.5 C 1819.3 733.1 1819 906.2 1819 1217.2 Z"/>
    <path d="M 787 971.2 C 787 1072.5 787.2 1155.1 787.4 1154.9 C 787.7 1154.7 788.8 1148.8 790 1142 C 801.9 1071.2 832.8 1002.3 878.5 945 C 941.5 865.9 1031.4 811 1130.4 791.1 C 1138.6 789.4 1145.5 787.8 1145.8 787.5 C 1146.1 787.2 1065.5 787 966.7 787 L 787 787 L 787 971.2 Z"/>
    <path d="M 1287.1 787.4 C 1287.3 787.7 1293.4 789 1300.5 790.5 C 1370.4 804.5 1432.2 833.4 1489.1 878.7 C 1506.4 892.4 1539.6 925.6 1553.3 942.9 C 1601 1002.8 1632.2 1072.2 1643.7 1143.7 C 1644.7 1149.9 1645.8 1155 1646.3 1155 C 1646.7 1155 1646.9 1072.3 1646.8 971.2 L 1646.5 787.5 L 1466.6 787.2 C 1367.6 787.1 1286.9 787.2 1287.1 787.4 Z"/>
    <path d="M 1186.4 960.5 C 1139.9 966.4 1097.7 983.5 1061.1 1011.1 C 1011.4 1048.7 976 1104.7 964.1 1164.7 C 960.1 1184.7 959 1195.7 959 1216.7 C 959 1258.5 967.3 1294.5 985.5 1331.1 C 997.9 1356.1 1011.7 1375.5 1031.5 1395.9 C 1073.9 1439.5 1123.9 1464.6 1185.5 1473.2 C 1199.5 1475.2 1235.9 1474.8 1251.5 1472.6 C 1308.1 1464.6 1358.7 1439.3 1399 1399 C 1445.3 1352.7 1471.4 1293.1 1474.6 1226.5 C 1477.8 1158.8 1451.3 1089 1403.2 1038.9 C 1362.8 996.8 1313.2 971 1254 961.4 C 1240.4 959.2 1200.8 958.7 1186.4 960.5 Z M 1229.5 1100 C 1272.1 1104.9 1308.4 1131.9 1325 1171 C 1335.8 1196.7 1337 1228 1328 1254.4 C 1324.5 1264.9 1317.4 1278.6 1311.5 1286.5 C 1304.8 1295.4 1292.5 1307.4 1284.3 1313.1 C 1274.2 1320.1 1258 1327.6 1246.3 1330.7 C 1237.4 1333.1 1234.7 1333.4 1217.5 1333.4 C 1197.1 1333.5 1191.6 1332.7 1176.8 1327.4 C 1154.9 1319.5 1133.9 1303.6 1120.8 1285 C 1087.1 1237.2 1093.5 1171.9 1135.8 1131.9 C 1147.1 1121.3 1158.7 1113.6 1171.3 1108.4 C 1190.7 1100.6 1209.8 1097.8 1229.5 1100 Z"/>
    <path d="M 787.1 1459.5 C 787 1602.3 787.3 1644.9 788.2 1645.8 C 789.1 1646.7 833 1647 979.4 1647 C 1083.9 1647 1169 1646.6 1168.5 1646.2 C 1167.9 1645.7 1163 1644.8 1157.5 1644.1 C 1132.2 1641 1096.3 1632.2 1069.5 1622.5 C 948.5 1578.6 853.4 1483.5 809.5 1362.5 C 800.6 1338 796.2 1320.6 788.2 1279.5 C 787.6 1276.2 787.2 1337.2 787.1 1459.5 Z"/>
    <path d="M 1645 1277.4 C 1645 1281.7 1640.1 1307 1636.4 1321.4 C 1600.4 1464.7 1493.2 1579.8 1352.5 1626.4 C 1327.8 1634.6 1280.8 1645 1268.3 1645 C 1266.6 1645 1264.8 1645.4 1264.5 1646 C 1264.1 1646.7 1327.4 1647 1453.8 1647 C 1636.5 1647 1643.8 1646.9 1645.3 1645.2 C 1646.9 1643.5 1647 1629.1 1647 1459.2 C 1647 1337.1 1646.7 1275 1646 1275 C 1645.5 1275 1645 1276.1 1645 1277.4 Z"/>
    <path d="M 731 1817.8 C 731 1818.2 735.4 1822 740.8 1826.1 C 904.3 1953.7 1107.8 2009.6 1314.5 1983.9 C 1427.5 1969.8 1535.2 1930.7 1633.8 1868 C 1656.6 1853.4 1702 1820.2 1702 1818 C 1702 1817.4 1523.2 1817 1216.5 1817 C 949.5 1817 731 1817.3 731 1817.8 Z"/>
    <path d="M 102.3 2736.2 L 102.6 2905.5 L 105.2 2919.6 C 110.8 2949.1 118.2 2974.2 125.8 2989.1 C 144.7 3026.3 181 3061.1 216.8 3076.4 C 249.4 3090.4 296.8 3097.3 361 3097.4 C 394.7 3097.5 408.4 3096.6 430 3092.9 C 478.8 3084.5 509.5 3069.2 541.3 3037.6 C 573.9 3005.2 592.4 2965 599.7 2911 C 601.4 2898.4 601.5 2886.1 601.5 2732.5 L 601.5 2567.5 L 520.8 2567.2 L 440.1 2567 L 439.7 2735.7 C 439.4 2893.8 439.3 2905 437.6 2912 C 428.6 2949.7 402.6 2971.5 362.5 2975 C 307.4 2979.8 270.3 2951.9 264 2901 C 263.4 2895.5 263 2835.9 263 2729.8 L 263 2567 L 182.5 2567 L 101.9 2567 L 102.3 2736.2 Z"/>
    <path d="M 708 2828 L 708 3089 L 789 3089 L 870 3089 L 870 2982.5 L 870 2876 L 971 2876 L 1072 2876 L 1071.8 2823.2 L 1071.5 2770.5 L 970.8 2770.2 L 870 2770 L 870 2725 L 870 2680 L 988 2680 L 1106 2680 L 1106 2623.5 L 1106 2567 L 907 2567 L 708 2567 L 708 2828 Z"/>
    <path d="M 1190.5 2568.2 C 1190.2 2568.9 1190.1 2686.3 1190.2 2829 L 1190.5 3088.5 L 1256.7 3088.8 L 1323 3089 L 1323.2 2893 L 1323.5 2696.9 L 1373.6 2892.7 L 1423.7 3088.5 L 1483.6 3088.5 L 1543.5 3088.5 L 1593.5 2893.8 L 1643.5 2699 L 1644 2893.8 L 1644.5 3088.5 L 1710.5 3088.5 L 1776.5 3088.5 L 1776.5 2828 L 1776.5 2567.5 L 1565.1 2567 L 1564.2 2570.2 C 1563.8 2572 1545.6 2642.7 1524 2727.2 C 1502.3 2811.8 1484.2 2880.6 1483.9 2880.2 C 1483.5 2879.8 1465.4 2810 1443.5 2725 C 1421.6 2640 1403.3 2569.7 1402.8 2568.7 C 1402 2567.1 1395.9 2567 1296.4 2567 C 1213 2567 1190.8 2567.3 1190.5 2568.2 Z"/>
    <path d="M 1842 2632 L 1842 2697 L 1924 2697 L 2006 2697 L 2006 2893 L 2006 3089 L 2086.8 3088.8 L 2167.5 3088.5 L 2167.8 2892.8 L 2168 2697 L 2249.8 2696.8 L 2331.5 2696.5 L 2331.5 2632 L 2331.5 2567.5 L 2086.8 2567.2 L 1842 2567 L 1842 2632 Z"/>
  </g>
</svg>