<svg id="svg" version="1.1" xmlns="http://www.w3.org/2000/svg" xmlns:xlink="http://www.w3.org/1999/xlink" width="400" height="400" viewBox="0, 0, 400,400"><g id="svgg"><path id="path0" d="M188.333 21.602 C 188.104 21.630,186.529 21.772,184.833 21.916 C 180.701 22.268,176.337 22.764,174.000 23.148 C 172.946 23.321,171.258 23.590,170.250 23.745 C 165.051 24.545,156.381 26.406,152.417 27.573 C 151.683 27.789,150.783 28.015,150.417 28.076 C 149.638 28.204,142.916 30.440,140.794 31.276 C 139.993 31.592,138.943 31.954,138.460 32.082 C 137.978 32.209,136.233 32.886,134.583 33.587 C 132.933 34.289,130.871 35.160,130.000 35.524 C 129.129 35.888,127.967 36.381,127.417 36.620 C 125.781 37.329,116.271 42.013,116.000 42.243 C 115.862 42.360,114.775 42.962,113.583 43.583 C 110.938 44.960,109.509 45.778,107.697 46.952 C 106.934 47.446,106.129 47.919,105.908 48.003 C 105.390 48.200,100.101 51.665,100.028 51.856 C 99.997 51.935,99.884 52.000,99.776 52.000 C 99.561 52.000,97.241 53.561,95.313 55.003 C 94.637 55.509,93.867 56.033,93.603 56.168 C 93.339 56.303,92.814 56.681,92.437 57.008 C 92.059 57.335,90.779 58.346,89.592 59.255 C 87.819 60.612,85.224 62.706,84.000 63.768 C 83.543 64.164,80.432 66.938,79.421 67.851 C 77.179 69.875,70.625 76.611,68.480 79.096 C 68.079 79.561,66.962 80.839,66.000 81.936 C 63.868 84.364,60.588 88.309,59.944 89.219 C 59.684 89.586,59.047 90.404,58.528 91.036 C 57.120 92.750,56.005 94.232,56.003 94.393 C 56.000 94.541,55.061 95.793,54.734 96.083 C 54.428 96.355,52.184 99.607,52.132 99.854 C 52.105 99.980,51.999 100.157,51.895 100.249 C 51.791 100.341,51.163 101.242,50.498 102.250 C 49.833 103.258,49.156 104.233,48.994 104.417 C 48.832 104.600,48.419 105.275,48.078 105.917 C 47.736 106.558,47.247 107.383,46.990 107.750 C 46.294 108.747,44.534 111.727,43.693 113.333 C 43.286 114.112,42.635 115.275,42.247 115.917 C 41.140 117.749,36.910 126.479,35.747 129.333 C 35.167 130.754,34.582 132.142,34.446 132.417 C 33.981 133.354,32.274 137.747,31.984 138.750 C 31.825 139.300,30.985 141.850,30.117 144.417 C 29.250 146.983,28.410 149.646,28.252 150.333 C 28.093 151.021,27.824 152.108,27.654 152.750 C 25.750 159.916,24.481 165.866,23.850 170.583 C 23.752 171.317,23.524 172.892,23.344 174.083 C 22.882 177.135,22.411 180.842,21.966 184.917 C 21.384 190.238,21.386 209.400,21.967 215.333 C 23.171 227.606,24.717 236.521,27.199 245.500 C 27.567 246.829,27.935 248.305,28.017 248.779 C 28.201 249.837,29.497 253.956,30.840 257.750 C 31.392 259.308,31.956 260.991,32.094 261.490 C 32.378 262.512,33.554 265.478,35.016 268.856 C 35.557 270.106,36.000 271.181,36.000 271.245 C 36.000 272.080,43.441 286.635,45.887 290.583 C 46.398 291.408,47.139 292.631,47.533 293.300 C 48.585 295.085,54.073 303.333,54.597 303.917 C 54.844 304.192,55.449 305.036,55.942 305.794 C 56.435 306.551,57.085 307.451,57.388 307.794 C 57.690 308.136,58.566 309.242,59.335 310.250 C 60.479 311.751,62.295 314.011,64.021 316.083 C 65.583 317.958,67.408 320.000,67.521 320.000 C 67.599 320.000,67.845 320.281,68.069 320.625 C 68.770 321.703,76.275 329.110,79.361 331.770 C 79.880 332.217,81.195 333.371,82.284 334.333 C 84.264 336.084,87.555 338.801,90.819 341.379 C 91.773 342.133,92.861 342.997,93.235 343.299 C 93.610 343.600,94.073 343.912,94.263 343.992 C 94.454 344.072,95.171 344.589,95.858 345.141 C 97.430 346.406,104.722 351.343,106.167 352.120 C 106.763 352.441,107.587 352.947,108.000 353.244 C 109.295 354.177,117.889 358.999,119.839 359.887 C 120.530 360.201,122.067 360.944,123.256 361.538 C 125.406 362.612,126.238 362.982,131.167 365.053 C 135.631 366.930,137.497 367.664,138.641 367.991 C 139.251 368.166,141.850 369.017,144.417 369.884 C 146.983 370.751,149.646 371.591,150.333 371.751 C 151.021 371.912,152.708 372.334,154.083 372.689 C 159.896 374.192,168.327 376.000,169.520 376.000 C 169.809 376.000,170.917 376.148,171.981 376.328 C 174.436 376.745,180.458 377.550,184.667 378.024 C 187.619 378.357,188.956 378.397,199.250 378.460 C 213.005 378.544,214.733 378.427,225.583 376.685 C 227.783 376.332,230.258 375.954,231.083 375.845 C 233.789 375.487,239.840 374.196,244.000 373.089 C 246.246 372.492,248.346 371.968,248.667 371.925 C 249.364 371.833,255.044 370.024,258.083 368.926 C 259.275 368.496,260.658 368.034,261.156 367.899 C 262.246 367.605,264.000 366.908,272.333 363.457 C 274.041 362.750,282.688 358.483,283.920 357.740 C 284.468 357.409,285.742 356.704,286.750 356.172 C 288.876 355.051,290.795 353.931,292.345 352.906 C 292.947 352.507,293.659 352.098,293.928 351.997 C 294.197 351.895,295.467 351.116,296.750 350.266 C 302.544 346.428,303.447 345.815,303.917 345.404 C 304.499 344.893,305.766 344.000,305.907 344.000 C 306.034 344.000,307.070 343.219,309.015 341.659 C 309.878 340.967,310.846 340.218,311.167 339.995 C 311.765 339.579,316.324 335.797,317.667 334.604 C 320.527 332.061,321.861 330.795,325.418 327.250 C 327.626 325.050,329.954 322.679,330.591 321.982 C 333.393 318.916,334.252 317.943,336.166 315.667 C 339.068 312.218,339.722 311.418,340.869 309.917 C 341.430 309.183,342.171 308.272,342.516 307.891 C 342.862 307.510,343.553 306.565,344.052 305.791 C 344.552 305.017,345.107 304.241,345.286 304.067 C 345.578 303.783,347.665 300.841,348.083 300.124 C 348.175 299.966,349.075 298.606,350.083 297.100 C 351.092 295.594,352.241 293.812,352.637 293.139 C 353.033 292.467,353.718 291.350,354.160 290.657 C 356.041 287.706,361.965 276.237,363.453 272.667 C 363.739 271.979,364.461 270.254,365.056 268.833 C 366.332 265.788,367.558 262.653,367.795 261.833 C 367.887 261.512,368.091 260.875,368.246 260.417 C 369.537 256.622,371.497 250.548,371.716 249.667 C 374.382 238.914,375.679 233.000,376.140 229.500 C 376.230 228.813,376.607 226.262,376.977 223.833 C 378.453 214.140,379.163 195.699,378.366 187.750 C 377.645 180.557,377.284 177.571,376.663 173.667 C 376.481 172.521,376.254 170.983,376.159 170.250 C 375.707 166.750,372.738 153.289,372.241 152.485 C 372.191 152.404,372.080 151.906,371.994 151.377 C 371.822 150.316,370.789 146.967,369.411 143.000 C 368.366 139.994,368.122 139.276,367.679 137.917 C 367.296 136.740,365.528 132.325,365.343 132.083 C 365.273 131.992,364.855 131.017,364.414 129.917 C 363.451 127.511,363.027 126.559,361.707 123.833 C 361.152 122.688,360.126 120.554,359.428 119.092 C 358.730 117.630,358.058 116.318,357.935 116.176 C 357.811 116.033,357.148 114.829,356.460 113.500 C 355.108 110.886,354.679 110.132,353.093 107.583 C 352.522 106.667,352.010 105.792,351.955 105.639 C 351.900 105.486,351.043 104.144,350.052 102.657 C 349.061 101.170,348.145 99.761,348.017 99.526 C 347.680 98.911,345.860 96.349,345.286 95.682 C 345.018 95.370,344.460 94.582,344.048 93.932 C 343.635 93.282,343.055 92.487,342.757 92.167 C 342.460 91.846,341.464 90.608,340.545 89.417 C 336.090 83.643,327.255 74.133,321.583 69.005 C 320.942 68.425,319.916 67.486,319.304 66.917 C 318.103 65.802,312.247 60.790,311.524 60.260 C 310.649 59.618,308.087 57.575,307.673 57.189 C 307.440 56.972,306.613 56.374,305.834 55.860 C 305.055 55.345,304.155 54.691,303.834 54.405 C 303.339 53.966,301.232 52.477,300.309 51.917 C 300.158 51.825,298.883 50.959,297.476 49.993 C 296.068 49.027,294.600 48.073,294.213 47.873 C 293.826 47.674,292.776 47.030,291.880 46.443 C 289.658 44.988,288.416 44.309,288.251 44.458 C 288.175 44.527,288.164 44.495,288.226 44.387 C 288.290 44.274,288.204 44.148,288.023 44.091 C 287.850 44.036,286.893 43.532,285.896 42.971 C 284.899 42.410,283.483 41.614,282.750 41.202 C 282.017 40.789,281.154 40.342,280.833 40.208 C 280.512 40.074,278.722 39.216,276.854 38.300 C 274.986 37.385,272.998 36.463,272.437 36.252 C 271.876 36.040,270.347 35.410,269.041 34.851 C 265.789 33.460,262.058 32.000,261.754 32.000 C 261.616 32.000,260.734 31.711,259.793 31.358 C 256.809 30.236,250.425 28.210,249.384 28.053 C 249.035 28.001,248.112 27.776,247.333 27.553 C 243.486 26.452,235.260 24.564,232.583 24.166 C 231.850 24.057,229.900 23.753,228.250 23.489 C 222.677 22.598,221.049 22.407,213.508 21.752 C 210.902 21.526,189.950 21.401,188.333 21.602 M210.667 49.418 C 217.158 49.920,219.170 50.174,226.583 51.423 C 232.640 52.443,236.581 53.352,242.250 55.035 C 243.808 55.497,245.383 55.938,245.750 56.013 C 246.790 56.227,251.653 57.980,257.833 60.370 C 258.337 60.565,259.462 61.055,260.333 61.458 C 261.204 61.862,262.817 62.606,263.917 63.112 C 266.564 64.330,267.605 64.849,269.500 65.898 C 270.371 66.379,271.908 67.210,272.917 67.743 C 273.925 68.276,275.350 69.102,276.083 69.577 C 276.817 70.053,278.204 70.917,279.167 71.497 C 280.702 72.423,281.929 73.234,285.035 75.375 C 285.467 75.673,286.254 76.203,286.785 76.554 C 287.316 76.904,288.200 77.565,288.750 78.023 C 289.300 78.480,290.209 79.168,290.770 79.552 C 292.014 80.403,298.141 85.389,299.750 86.860 C 300.392 87.446,301.179 88.140,301.500 88.401 C 303.557 90.074,311.401 97.853,312.342 99.152 C 312.603 99.513,312.915 99.870,313.035 99.945 C 313.670 100.347,318.831 106.726,321.250 110.099 C 321.892 110.993,322.494 111.806,322.589 111.904 C 322.982 112.311,323.662 113.302,324.085 114.083 C 324.334 114.542,324.742 115.179,324.993 115.500 C 325.531 116.190,328.000 119.972,328.000 120.108 C 328.000 120.235,330.163 123.852,330.428 124.167 C 330.754 124.556,335.678 133.971,336.093 135.000 C 336.296 135.504,336.817 136.667,337.250 137.583 C 338.565 140.369,339.089 141.534,339.537 142.667 C 341.332 147.209,344.000 154.386,344.000 154.674 C 344.000 154.780,344.445 156.341,344.989 158.142 C 346.604 163.488,347.748 167.949,348.007 169.917 C 348.080 170.467,348.367 172.267,348.646 173.917 C 348.924 175.567,349.267 177.967,349.407 179.250 C 349.547 180.533,349.931 184.000,350.259 186.953 L 350.857 192.323 350.791 201.036 C 350.712 211.569,350.470 214.260,348.581 225.667 C 346.974 235.370,344.367 245.016,340.834 254.333 C 340.365 255.571,339.824 256.996,339.632 257.500 C 339.237 258.539,336.847 263.828,336.657 264.083 C 336.589 264.175,336.344 264.718,336.112 265.290 C 335.881 265.861,334.998 267.624,334.150 269.206 C 333.302 270.789,332.282 272.709,331.883 273.474 C 331.484 274.239,330.759 275.476,330.272 276.224 C 329.785 276.972,329.100 278.071,328.749 278.667 C 327.794 280.290,325.939 283.120,325.089 284.250 C 324.675 284.800,324.224 285.475,324.086 285.750 C 323.949 286.025,323.517 286.671,323.127 287.186 C 322.340 288.224,320.259 291.000,319.746 291.696 C 318.692 293.126,313.077 299.811,312.562 300.250 C 312.454 300.342,311.996 300.867,311.544 301.417 C 310.296 302.934,302.349 310.884,300.083 312.881 C 297.231 315.394,292.776 318.997,289.680 321.294 C 286.796 323.434,285.994 324.000,285.845 324.000 C 285.767 324.000,285.226 324.351,284.643 324.781 C 283.439 325.668,279.925 327.971,279.519 328.139 C 279.282 328.237,277.344 329.397,275.275 330.679 C 274.895 330.915,273.458 331.693,272.083 332.407 C 270.708 333.122,268.833 334.104,267.917 334.591 C 267.000 335.077,264.900 336.088,263.250 336.838 C 261.600 337.589,260.175 338.257,260.083 338.323 C 259.634 338.650,251.926 341.577,248.000 342.913 C 243.819 344.336,237.934 346.003,233.083 347.138 C 230.623 347.714,229.825 347.862,226.667 348.327 C 225.429 348.510,223.143 348.849,221.587 349.081 C 217.108 349.750,211.455 350.460,208.917 350.672 C 205.509 350.957,191.597 350.797,188.083 350.433 C 183.623 349.970,178.928 349.341,175.333 348.724 C 173.454 348.401,171.427 348.073,170.830 347.995 C 168.694 347.715,162.557 346.218,157.917 344.846 C 156.633 344.466,155.133 344.050,154.583 343.921 C 152.791 343.500,142.967 339.821,140.083 338.491 C 139.350 338.152,137.813 337.450,136.667 336.929 C 133.974 335.705,132.311 334.877,130.250 333.735 C 129.333 333.227,127.796 332.397,126.833 331.889 C 125.871 331.382,124.746 330.739,124.333 330.460 C 123.180 329.680,120.742 328.185,120.392 328.043 C 120.220 327.974,119.046 327.204,117.784 326.333 C 116.521 325.462,115.015 324.450,114.436 324.083 C 113.858 323.717,113.016 323.137,112.567 322.794 C 110.125 320.934,108.944 320.049,108.504 319.750 C 107.735 319.227,103.254 315.588,101.439 314.011 C 100.534 313.226,99.297 312.162,98.689 311.647 C 98.081 311.133,96.961 310.101,96.200 309.356 C 95.440 308.610,94.757 308.000,94.682 308.000 C 94.283 308.000,86.054 299.004,83.247 295.500 C 80.415 291.964,80.121 291.587,78.706 289.680 C 77.997 288.725,77.130 287.563,76.780 287.097 C 76.429 286.631,76.078 286.100,76.000 285.917 C 75.922 285.733,75.588 285.208,75.259 284.750 C 74.369 283.511,72.000 279.968,72.000 279.875 C 72.000 279.785,70.796 277.812,69.715 276.129 C 69.318 275.513,68.669 274.388,68.272 273.629 C 67.875 272.871,66.872 270.975,66.042 269.417 C 64.609 266.726,61.120 259.299,60.366 257.333 C 58.269 251.875,56.252 246.293,56.089 245.500 C 56.024 245.179,55.570 243.529,55.082 241.833 C 53.338 235.782,52.320 231.556,51.749 228.000 C 51.595 227.037,51.252 225.012,50.987 223.500 C 50.484 220.626,49.814 215.064,49.492 211.083 C 49.150 206.863,49.367 189.220,49.804 185.667 C 50.557 179.545,51.448 173.667,52.356 168.833 C 52.989 165.462,55.137 157.222,56.549 152.750 C 56.838 151.833,57.083 151.046,57.093 151.000 C 57.103 150.954,57.199 150.706,57.306 150.447 C 57.413 150.189,57.500 149.940,57.500 149.893 C 57.500 149.814,59.370 144.896,60.532 141.917 C 60.819 141.183,61.716 139.203,62.526 137.517 C 63.337 135.830,64.001 134.368,64.001 134.267 C 64.002 134.166,64.798 132.621,65.770 130.833 C 66.742 129.046,67.873 126.946,68.283 126.167 C 68.693 125.388,69.196 124.525,69.401 124.250 C 69.605 123.975,70.360 122.775,71.078 121.583 C 72.317 119.529,73.858 117.198,75.323 115.167 C 75.686 114.662,75.987 114.191,75.992 114.118 C 76.000 113.979,77.312 112.144,77.506 112.000 C 77.716 111.844,79.788 109.063,79.997 108.656 C 80.112 108.433,80.334 108.138,80.490 108.000 C 80.647 107.862,81.553 106.775,82.503 105.583 C 83.453 104.392,84.910 102.645,85.741 101.703 C 86.571 100.760,87.614 99.560,88.059 99.036 C 93.415 92.726,102.688 84.170,110.051 78.744 C 111.042 78.014,112.276 77.098,112.793 76.708 C 113.310 76.319,113.803 76.000,113.888 76.000 C 113.974 76.000,114.778 75.472,115.676 74.827 C 116.573 74.182,118.757 72.786,120.529 71.725 C 122.300 70.664,123.950 69.653,124.195 69.479 C 124.440 69.305,125.340 68.802,126.195 68.360 C 127.050 67.919,129.254 66.757,131.092 65.779 C 132.931 64.800,134.514 64.000,134.610 64.000 C 134.707 64.000,135.753 63.542,136.934 62.982 C 140.696 61.199,141.728 60.730,142.667 60.378 C 143.171 60.188,144.933 59.508,146.583 58.866 C 150.185 57.464,153.564 56.234,154.250 56.075 C 154.525 56.012,156.175 55.525,157.917 54.993 C 163.228 53.371,167.479 52.265,169.417 52.000 C 169.967 51.925,171.438 51.672,172.687 51.438 C 183.062 49.492,199.988 48.592,210.667 49.418 M189.583 76.587 C 180.977 77.491,178.558 77.876,171.750 79.427 C 165.403 80.872,162.316 81.804,155.083 84.459 C 151.689 85.705,143.824 89.418,140.802 91.202 C 140.070 91.633,139.313 92.037,139.120 92.098 C 138.679 92.238,137.658 92.855,134.956 94.615 C 133.786 95.377,132.786 96.000,132.734 96.000 C 132.561 96.000,128.000 99.207,128.000 99.328 C 128.000 99.394,127.644 99.646,127.208 99.888 C 126.337 100.374,125.108 101.305,122.991 103.083 L 121.602 104.250 156.259 104.299 C 179.514 104.331,191.420 104.290,192.445 104.174 C 194.422 103.949,206.049 103.948,207.765 104.172 C 208.646 104.287,220.586 104.329,243.741 104.297 L 278.398 104.250 277.009 103.083 C 274.892 101.305,273.663 100.374,272.792 99.888 C 272.356 99.646,272.000 99.388,272.000 99.317 C 272.000 99.198,269.514 97.521,264.349 94.156 C 263.303 93.474,261.865 92.617,261.154 92.250 C 260.443 91.883,258.642 90.915,257.151 90.098 C 255.661 89.282,253.874 88.370,253.179 88.073 C 252.485 87.776,250.679 86.973,249.167 86.289 C 246.124 84.912,245.248 84.576,239.919 82.739 C 236.128 81.433,232.091 80.231,230.921 80.061 C 230.552 80.008,229.387 79.752,228.333 79.494 C 223.872 78.400,217.465 77.269,212.618 76.720 C 209.331 76.348,192.775 76.252,189.583 76.587 M103.053 123.125 C 102.703 123.560,102.364 123.940,102.300 123.969 C 102.126 124.048,100.000 126.934,100.000 127.092 C 100.000 127.167,99.714 127.571,99.365 127.989 C 98.604 128.902,96.410 132.143,95.071 134.333 C 94.539 135.204,93.981 136.067,93.831 136.250 C 93.526 136.624,92.397 138.565,91.892 139.583 C 91.499 140.376,90.623 141.987,89.390 144.185 C 88.895 145.067,88.337 146.229,88.149 146.769 C 87.962 147.308,87.713 147.900,87.597 148.083 C 85.733 151.020,81.047 164.521,79.758 170.667 C 79.614 171.354,79.276 172.929,79.008 174.167 C 75.442 190.593,75.348 208.806,78.745 224.833 C 78.979 225.939,79.306 227.382,80.272 231.583 C 80.677 233.346,81.547 236.156,82.843 239.889 C 84.661 245.123,84.959 245.897,86.293 248.833 C 86.980 250.346,87.762 252.108,88.031 252.750 C 88.300 253.392,89.246 255.257,90.135 256.896 C 91.023 258.535,92.055 260.452,92.427 261.156 C 92.800 261.860,93.593 263.182,94.190 264.093 C 94.788 265.004,95.494 266.125,95.760 266.583 C 96.025 267.042,96.957 268.451,97.830 269.714 C 98.703 270.978,99.567 272.239,99.750 272.516 C 100.429 273.542,102.043 275.755,102.231 275.917 C 102.337 276.008,102.713 276.440,103.066 276.875 C 103.418 277.310,103.773 277.667,103.853 277.667 C 103.938 277.667,104.000 244.575,104.000 200.000 C 104.000 152.049,103.941 122.333,103.844 122.333 C 103.759 122.333,103.403 122.690,103.053 123.125 M296.333 200.000 C 296.333 242.533,296.392 277.333,296.463 277.333 C 296.747 277.333,300.000 273.296,300.000 272.943 C 300.000 272.881,300.469 272.211,301.042 271.453 C 302.602 269.391,306.553 263.216,307.677 261.083 C 308.015 260.442,308.797 258.979,309.415 257.833 C 310.803 255.259,312.000 252.870,312.000 252.675 C 312.000 252.594,312.180 252.165,312.401 251.722 C 313.205 250.106,314.967 246.047,315.464 244.667 C 318.014 237.588,319.626 232.481,320.002 230.286 C 320.083 229.808,320.449 228.142,320.813 226.583 C 321.962 221.671,322.843 216.253,323.418 210.580 C 323.892 205.893,323.701 190.963,323.110 186.583 C 322.349 180.933,321.341 175.380,320.403 171.667 C 320.183 170.796,320.002 169.929,320.002 169.740 C 319.999 169.281,318.718 164.755,317.856 162.167 C 315.570 155.296,315.045 153.904,313.332 150.167 C 312.765 148.929,312.168 147.569,312.005 147.145 C 311.843 146.721,310.978 144.996,310.084 143.312 C 309.190 141.628,308.140 139.645,307.750 138.906 C 306.580 136.683,301.262 128.500,300.989 128.500 C 300.892 128.500,300.854 128.435,300.903 128.356 C 300.952 128.276,300.836 128.070,300.645 127.897 C 300.454 127.725,300.162 127.321,299.997 127.000 C 299.497 126.032,296.765 122.667,296.480 122.667 C 296.396 122.667,296.333 155.684,296.333 200.000 M131.333 160.500 C 131.333 190.750,131.386 192.836,132.000 186.833 C 132.270 184.191,133.733 178.877,135.110 175.536 C 135.423 174.777,135.627 174.071,135.564 173.969 C 135.497 173.860,135.523 173.828,135.627 173.892 C 135.734 173.959,135.853 173.785,135.922 173.460 C 135.986 173.161,136.139 172.672,136.262 172.372 C 136.385 172.072,136.482 171.781,136.479 171.724 C 136.475 171.667,136.550 171.572,136.647 171.512 C 136.743 171.453,137.131 170.736,137.508 169.920 C 137.885 169.104,138.600 167.745,139.097 166.901 C 139.594 166.057,140.000 165.277,140.000 165.167 C 140.000 164.967,140.474 164.212,142.600 161.025 C 143.232 160.077,143.841 159.139,143.953 158.942 C 144.144 158.605,144.807 157.760,147.000 155.055 C 148.145 153.643,153.379 148.424,154.994 147.083 C 157.278 145.188,158.087 144.546,159.167 143.774 C 160.905 142.531,163.989 140.438,164.472 140.174 C 164.717 140.040,165.892 139.390,167.083 138.728 C 172.771 135.572,181.527 132.474,186.352 131.910 C 186.776 131.860,187.263 131.713,187.436 131.582 C 187.708 131.375,184.012 131.343,159.542 131.339 L 131.333 131.333 131.333 160.500 M212.167 131.487 C 212.167 131.668,212.646 131.781,214.333 131.994 C 216.833 132.311,220.134 133.296,224.623 135.065 C 225.928 135.579,227.110 136.000,227.250 136.000 C 227.390 136.000,228.554 136.544,229.837 137.208 C 236.467 140.643,237.413 141.185,239.779 142.917 C 240.530 143.467,241.548 144.201,242.041 144.548 C 242.534 144.895,243.458 145.670,244.094 146.269 C 244.730 146.869,245.512 147.539,245.833 147.759 C 246.561 148.258,251.608 153.499,252.147 154.315 C 252.366 154.646,252.859 155.254,253.244 155.667 C 254.044 156.525,255.348 158.198,256.166 159.417 C 256.474 159.875,257.358 161.188,258.131 162.333 C 258.903 163.479,259.893 165.092,260.330 165.917 C 263.133 171.209,263.717 172.381,264.104 173.500 C 264.342 174.188,264.784 175.350,265.085 176.083 C 266.127 178.618,267.683 184.367,268.153 187.417 C 268.424 189.174,268.507 189.500,268.685 189.500 C 268.771 189.500,268.833 177.337,268.833 160.417 L 268.833 131.333 240.500 131.333 C 223.353 131.333,212.167 131.394,212.167 131.487 M196.167 158.833 C 192.797 159.222,188.704 160.091,186.333 160.919 C 184.336 161.617,178.982 164.170,179.104 164.366 C 179.148 164.438,179.086 164.464,178.967 164.425 C 178.116 164.148,168.000 172.657,168.000 173.650 C 168.000 173.733,167.510 174.413,166.912 175.160 C 165.727 176.639,164.292 178.842,164.083 179.502 C 164.011 179.730,163.789 180.179,163.590 180.500 C 162.223 182.707,160.417 187.656,159.759 191.000 C 159.606 191.779,159.355 193.054,159.201 193.833 C 158.656 196.595,158.793 204.164,159.444 207.250 C 159.735 208.625,160.021 210.125,160.081 210.583 C 160.434 213.276,164.415 221.821,166.253 223.833 C 166.462 224.063,167.059 224.850,167.580 225.583 C 168.521 226.909,172.927 231.529,173.577 231.871 C 173.983 232.086,175.847 233.502,176.083 233.777 C 177.429 235.339,186.552 239.404,190.190 240.061 C 190.956 240.200,192.221 240.427,193.000 240.567 C 197.405 241.357,202.581 241.355,206.917 240.562 C 207.650 240.427,208.737 240.241,209.333 240.148 C 213.316 239.525,221.049 236.022,224.417 233.314 C 224.875 232.946,225.614 232.393,226.060 232.086 C 227.015 231.429,231.996 226.568,232.009 226.281 C 232.014 226.172,232.429 225.596,232.931 225.000 C 235.593 221.840,240.000 212.917,240.000 210.687 C 240.000 210.507,240.150 209.726,240.334 208.952 C 243.017 197.656,240.070 183.879,233.113 175.191 C 232.501 174.427,232.000 173.729,232.000 173.639 C 232.000 173.428,226.572 168.000,226.361 168.000 C 226.271 168.000,225.573 167.499,224.809 166.887 C 217.574 161.093,205.642 157.738,196.167 158.833 M202.333 181.506 C 212.491 182.821,219.852 192.286,218.489 202.280 C 216.361 217.876,197.749 224.096,186.771 212.880 C 174.530 200.374,185.002 179.261,202.333 181.506 M268.264 209.901 C 268.205 210.213,268.124 210.979,268.083 211.602 C 267.922 214.046,267.072 217.321,265.256 222.499 C 264.565 224.470,264.000 226.142,264.000 226.216 C 264.000 226.398,261.360 231.709,260.287 233.686 C 259.808 234.568,258.557 236.541,257.506 238.072 C 255.831 240.511,254.888 241.748,252.114 245.139 C 251.158 246.308,246.202 251.281,245.250 252.026 C 244.792 252.385,243.779 253.208,243.000 253.855 C 239.722 256.578,235.043 259.469,229.667 262.095 C 223.671 265.023,215.964 267.471,210.833 268.077 C 206.350 268.607,209.213 268.667,238.917 268.667 L 268.667 268.667 268.667 239.000 C 268.667 211.749,268.615 208.029,268.264 209.901 M131.333 239.250 L 131.333 268.667 161.533 268.667 C 192.248 268.667,194.044 268.629,189.400 268.083 C 185.884 267.669,183.119 266.966,177.901 265.160 C 176.059 264.522,174.446 264.000,174.317 263.999 C 174.085 263.998,169.603 261.801,166.417 260.126 C 163.762 258.730,156.348 253.698,155.916 252.999 C 155.857 252.904,155.383 252.513,154.863 252.131 C 153.734 251.301,149.326 247.008,148.111 245.554 C 146.183 243.248,144.681 241.371,144.135 240.583 C 142.042 237.565,140.360 234.957,139.748 233.781 C 137.209 228.911,136.399 227.246,135.919 225.917 C 135.622 225.092,135.025 223.479,134.594 222.333 C 133.891 220.468,133.094 217.989,132.906 217.083 C 132.868 216.900,132.681 216.116,132.491 215.341 C 132.300 214.566,132.074 213.291,131.989 212.508 C 131.759 210.393,131.654 209.833,131.485 209.833 C 131.394 209.833,131.333 221.640,131.333 239.250 M122.425 296.154 C 122.372 296.239,122.687 296.595,123.123 296.946 C 123.560 297.296,123.992 297.665,124.083 297.766 C 124.353 298.061,126.217 299.439,127.034 299.947 C 127.450 300.206,128.240 300.755,128.791 301.169 C 130.579 302.512,137.211 306.748,138.833 307.582 C 139.337 307.841,139.862 308.114,140.000 308.188 C 140.137 308.262,141.639 309.072,143.336 309.989 C 145.034 310.907,146.684 311.740,147.003 311.842 C 147.322 311.943,147.846 312.163,148.167 312.329 C 148.487 312.496,149.500 312.948,150.417 313.334 C 151.333 313.721,152.158 314.092,152.250 314.159 C 153.136 314.806,164.667 318.695,168.250 319.555 C 175.521 321.300,181.305 322.365,188.000 323.193 C 190.512 323.503,192.021 323.563,198.866 323.624 L 206.815 323.694 211.449 323.174 C 217.187 322.531,220.415 322.021,224.917 321.049 C 226.842 320.633,228.792 320.221,229.250 320.134 C 231.188 319.764,235.479 318.534,238.583 317.457 C 240.417 316.821,242.254 316.203,242.667 316.083 C 244.291 315.610,251.346 312.629,251.912 312.176 C 252.006 312.100,252.314 311.989,252.595 311.929 C 252.877 311.869,254.414 311.123,256.012 310.272 C 257.609 309.421,259.667 308.328,260.583 307.843 C 261.500 307.359,262.850 306.571,263.583 306.091 C 265.773 304.661,266.834 304.000,266.941 304.000 C 267.114 304.000,271.038 301.324,271.863 300.643 C 272.292 300.289,272.710 300.000,272.792 300.000 C 272.958 300.000,275.655 298.075,275.917 297.770 C 276.008 297.663,276.439 297.288,276.873 296.936 C 277.308 296.584,277.622 296.229,277.572 296.148 C 277.447 295.946,122.550 295.952,122.425 296.154 " stroke="none" fill="#ffffff" fill-rule="evenodd"></path></g></svg>